<svg width="718" height="260" viewBox="0 0 718 260" fill="none" xmlns="http://www.w3.org/2000/svg">
<path d="M191.268 70.7947V72.7803C190.973 72.7803 190.53 73.0218 189.926 73.478C189.349 73.9073 188.759 74.7392 188.155 75.9467C187.538 77.1273 187.055 78.8313 186.706 81.045C186.344 83.2722 186.169 86.2373 186.169 89.9537V208.289C186.169 211.871 186.344 214.823 186.706 217.144C187.055 219.438 187.538 221.196 188.155 222.403C188.759 223.584 189.349 224.416 189.926 224.872C190.53 225.301 190.973 225.516 191.268 225.516V227.501H164.917V225.516C165.239 225.516 165.682 225.301 166.259 224.872C166.863 224.416 167.413 223.584 167.923 222.403C168.459 221.196 168.942 219.438 169.372 217.144C169.828 214.823 170.069 211.871 170.069 208.289V75.4637L103.093 214.353L109.372 227.501H91.7161L26.7257 92.4223V190.901C26.7257 196.093 27.0209 200.816 27.6381 205.069C28.2418 209.295 28.9395 212.944 29.7311 216.017C30.5495 219.062 31.4484 221.41 32.4144 223.047C33.3804 224.697 34.3062 225.516 35.2051 225.516V227.501H16.2607V225.516C17.1462 225.516 18.0854 224.697 19.0514 223.047C20.0174 221.41 20.9029 219.062 21.7347 216.017C22.5532 212.944 23.2508 209.295 23.8277 205.069C24.4315 200.816 24.7401 196.093 24.7401 190.901V88.3973L16.2607 70.7947H33.8634L101.966 212.099L170.069 70.7947H191.268Z" fill="white"/>
<path d="M231.014 72.7803C230.545 72.7803 230.008 73.0218 229.404 73.478C228.827 73.9073 228.277 74.7392 227.741 75.9467C227.231 77.1273 226.748 78.8313 226.292 81.045C225.862 83.2722 225.648 86.2373 225.648 89.9537V208.289C225.648 211.871 225.862 214.823 226.292 217.144C226.748 219.438 227.231 221.196 227.741 222.403C228.277 223.584 228.827 224.416 229.404 224.872C230.008 225.301 230.545 225.516 231.014 225.516V227.501H204.664V225.516C204.946 225.516 205.375 225.301 205.952 224.872C206.556 224.416 207.133 223.584 207.669 222.403C208.206 221.196 208.689 219.438 209.118 217.144C209.548 214.823 209.762 211.871 209.762 208.289V89.9537C209.762 86.2373 209.548 83.2722 209.118 81.045C208.689 78.8313 208.206 77.1273 207.669 75.9467C207.133 74.7392 206.556 73.9073 205.952 73.478C205.375 73.0218 204.946 72.7803 204.664 72.7803V70.7947H231.014V72.7803Z" fill="white"/>
<path d="M270.749 72.9949C270.427 72.9949 269.957 73.2364 269.353 73.6926C268.777 74.1219 268.186 74.9538 267.582 76.1613C267.006 77.3419 266.523 79.0593 266.133 81.3133C265.771 83.5404 265.597 86.5055 265.597 90.2219V225.516H290.82C296.321 224.912 301.352 224.093 305.9 223.047C310.435 222.014 314.608 220.793 318.405 219.398C322.188 217.975 325.757 216.365 329.084 214.568C332.439 212.783 335.846 210.851 339.281 208.772H341.267V227.716H322.054L316.258 227.501H244.398V225.516C244.68 225.516 245.11 225.341 245.686 224.979C246.29 224.59 246.867 223.771 247.404 222.51C247.94 221.222 248.423 219.478 248.853 217.251C249.282 214.997 249.497 212.018 249.497 208.289V90.2219C249.497 86.5055 249.282 83.5404 248.853 81.3133C248.423 79.0593 247.94 77.3419 247.404 76.1613C246.867 74.9538 246.29 74.1219 245.686 73.6926C245.11 73.2364 244.68 72.9949 244.398 72.9949V71.0093H270.749V72.9949Z" fill="white"/>
<path d="M357.356 169.434C354.525 158.888 353.881 148.397 355.424 137.985C356.994 127.574 360.308 117.994 365.352 109.22C370.424 100.419 377.065 92.7845 385.263 86.3042C393.447 79.8374 402.825 75.1818 413.384 72.3509C423.929 69.5334 434.421 68.8626 444.833 70.3652C455.271 71.8411 464.877 75.1147 473.652 80.1862C482.453 85.2309 490.074 91.8856 496.514 100.15C502.98 108.415 507.636 117.833 510.467 128.379C513.325 138.938 514.009 149.403 512.506 159.774C511.004 170.118 507.703 179.671 502.632 188.432C497.587 197.206 490.932 204.881 482.668 211.455C474.43 218.002 465.025 222.698 454.439 225.516C443.88 228.333 433.428 229.004 423.098 227.501C412.753 225.999 403.187 222.698 394.386 217.573C385.611 212.421 377.964 205.766 371.417 197.609C364.869 189.425 360.173 180.033 357.356 169.434ZM494.635 132.619C492.408 124.005 488.732 115.593 483.58 107.395C478.455 99.2111 472.364 92.2076 465.28 86.4116C458.196 80.6156 450.266 76.4832 441.505 74.0146C432.731 71.5459 423.581 71.5862 414.028 74.1219C404.368 76.6711 396.372 81.2059 390.039 87.7532C383.706 94.3006 378.89 101.854 375.603 110.401C372.342 118.96 370.571 128.084 370.29 137.771C369.994 147.431 370.96 156.581 373.188 165.194C375.576 173.861 379.306 182.247 384.35 190.364C389.422 198.454 395.526 205.417 402.651 211.24C409.802 217.036 417.731 221.209 426.425 223.745C435.146 226.253 444.35 226.16 454.01 223.476C463.522 220.94 471.451 216.392 477.784 209.845C484.117 203.298 488.906 195.757 492.167 187.198C495.454 178.651 497.278 169.581 497.641 159.989C498.03 150.369 497.023 141.245 494.635 132.619Z" fill="white"/>
<path d="M531.879 89.9537C531.879 86.2373 531.664 83.2722 531.235 81.045C530.805 78.8313 530.322 77.1273 529.786 75.9467C529.249 74.7392 528.672 73.9073 528.068 73.478C527.491 73.0218 527.062 72.7803 526.78 72.7803V70.7947H552.916V72.7803C552.594 72.7803 552.124 73.0218 551.521 73.478C550.944 73.9073 550.353 74.7392 549.75 75.9467C549.173 77.1273 548.69 78.8313 548.301 81.045C547.938 83.2722 547.764 86.2373 547.764 89.9537V168.575C547.616 179.416 548.958 189.009 551.789 197.341C552.97 200.923 554.553 204.465 556.565 207.967C558.564 211.482 561.087 214.568 564.132 217.251C567.205 219.934 570.854 222.108 575.08 223.745C579.333 225.355 584.284 226.16 589.946 226.16C595.447 226.16 601.323 225.435 607.549 223.959C613.801 222.457 619.624 219.639 624.99 215.48C630.357 211.294 634.771 205.444 638.246 197.931C641.748 190.418 643.505 180.637 643.505 168.575V107.181C643.505 101.962 643.197 97.2389 642.593 93.0127C642.016 88.7596 641.318 85.1505 640.5 82.172C639.668 79.2069 638.783 76.8993 637.817 75.249C636.851 73.6122 635.911 72.7803 635.026 72.7803V70.7947H654.024V72.7803C653.125 72.7803 652.199 73.6122 651.233 75.249C650.267 76.8993 649.368 79.2069 648.55 82.172C647.718 85.1505 647.007 88.7596 646.403 93.0127C645.826 97.2389 645.545 101.962 645.545 107.181V168.575C645.545 177.954 644.485 185.95 642.378 192.564C640.299 199.192 637.615 204.733 634.328 209.201C631.068 213.682 627.405 217.224 623.327 219.827C619.248 222.403 615.183 224.375 611.144 225.73C607.133 227.059 603.376 227.89 599.874 228.253C596.359 228.642 593.568 228.843 591.502 228.843C589.423 228.843 586.484 228.602 582.701 228.145C578.904 227.716 574.772 226.777 570.304 225.301C565.823 223.798 561.315 221.705 556.78 219.022C552.232 216.339 548.14 212.77 544.49 208.289C540.868 203.821 537.862 198.36 535.474 191.92C533.073 185.454 531.879 177.672 531.879 168.575V89.9537Z" fill="white"/>
<path d="M693.763 72.7803C693.294 72.7803 692.757 73.0218 692.153 73.478C691.577 73.9073 691.026 74.7392 690.49 75.9467C689.98 77.1273 689.497 78.8313 689.041 81.045C688.611 83.2722 688.397 86.2373 688.397 89.9537V208.289C688.397 211.871 688.611 214.823 689.041 217.144C689.497 219.438 689.98 221.196 690.49 222.403C691.026 223.584 691.577 224.416 692.153 224.872C692.757 225.301 693.294 225.516 693.763 225.516V227.501H667.413V225.516C667.695 225.516 668.124 225.301 668.701 224.872C669.305 224.416 669.882 223.584 670.418 222.403C670.955 221.196 671.438 219.438 671.867 217.144C672.297 214.823 672.511 211.871 672.511 208.289V89.9537C672.511 86.2373 672.297 83.2722 671.867 81.045C671.438 78.8313 670.955 77.1273 670.418 75.9467C669.882 74.7392 669.305 73.9073 668.701 73.478C668.124 73.0218 667.695 72.7803 667.413 72.7803V70.7947H693.763V72.7803Z" fill="white"/>
<mask id="mask0_790_2" style="mask-type:luminance" maskUnits="userSpaceOnUse" x="483" y="14" width="114" height="115">
<path d="M483.639 14.7217H596.983V128.066H483.639V14.7217Z" fill="white"/>
</mask>
<g mask="url(#mask0_790_2)">
<path d="M547.234 74.4258L563.026 94.1081L543.343 78.3167L540.351 128.146L537.373 78.3167L517.691 94.1081L533.469 74.4258L483.639 71.4339L533.469 68.442L517.691 48.7598L537.373 64.5512L540.351 14.7217L543.343 64.5512L563.026 48.7598L547.234 68.442L597.064 71.4339L547.234 74.4258Z" fill="white"/>
</g>
</svg>
