<svg xmlns:xlink="http://www.w3.org/1999/xlink" xmlns="http://www.w3.org/2000/svg" width="27.561" height="19.293" viewBox="0 0 27.561 19.293">
  <path id="Icon_awesome-shuttle-van" d="M27.082,9.943l-5.792-6.95A2.068,2.068,0,0,0,19.7,2.25H1.378A1.378,1.378,0,0,0,0,3.628v12.4a1.378,1.378,0,0,0,1.378,1.378H2.756a4.134,4.134,0,0,0,8.268,0h5.512a4.134,4.134,0,0,0,8.268,0h1.378a1.378,1.378,0,0,0,1.378-1.378C27.561,10.783,27.392,10.315,27.082,9.943ZM6.89,19.476a2.067,2.067,0,1,1,2.067-2.067A2.067,2.067,0,0,1,6.89,19.476Zm13.781,0a2.067,2.067,0,1,1,2.067-2.067A2.067,2.067,0,0,1,20.671,19.476ZM16.537,9.14V5.006H19.38L22.825,9.14Z" transform="translate(0 -2.25)" fill="#fff"/>
</svg>