<svg width="72" height="73" viewBox="0 0 72 73" fill="none" xmlns="http://www.w3.org/2000/svg">
<mask id="mask0_790_40" style="mask-type:luminance" maskUnits="userSpaceOnUse" x="17" y="5" width="50" height="50">
<path d="M17 5H67V55H17V5Z" fill="white"/>
</mask>
<g mask="url(#mask0_790_40)">
<path d="M45.054 31.3376L52.0201 40.0201L43.3376 33.054L42.0178 55.0355L40.7038 33.054L32.0213 40.0201L38.9815 31.3376L17 30.0178L38.9815 28.6979L32.0213 20.0154L40.7038 26.9815L42.0178 5L43.3376 26.9815L52.0201 20.0154L45.054 28.6979L67.0355 30.0178L45.054 31.3376Z" fill="white"/>
</g>
<path d="M18.5881 52.6955L22.2105 57.2105L17.6955 53.5881L17.0092 65.0185L16.326 53.5881L11.8111 57.2105L15.4304 52.6955L4 52.0092L15.4304 51.3229L11.8111 46.808L16.326 50.4304L17.0092 39L17.6955 50.4304L22.2105 46.808L18.5881 51.3229L30.0185 52.0092L18.5881 52.6955Z" fill="white"/>
</svg>
